PathFileType	4	(X/Y/Z)	s05c0101.trc
DataRate	CameraRate	NumFrames	NumMarkers	Units	OrigDataRate	OrigDataStartFrame	OrigNumFrames
200	200	4	50	mm	200	1750	2000
Frame#	Time	racr			lacr			c7			jug			rlel			rdr			llel			ldr			s2			lic			ric			lasi			rasi			rpsi			lpsi			rgt			lgt			rth1			rth2			rth3			rth4			rlfc			rmfc			rsh1			rsh2			rsh3			rsh4			rlmal			rmmal			rcal			rtoe			rmt5			lth1			lth2			lth4			lth3			llfc			lmfc			lsh1			lsh2			lsh3			lsh4			llmal			lmmal			lcal			ltoe			lmt5			SBIKE			LBIKE			RBIKE			
		X1	Y1	Z1	X2	Y2	Z2	X3	Y3	Z3	X4	Y4	Z4	X5	Y5	Z5	X6	Y6	Z6	X7	Y7	Z7	X8	Y8	Z8	X9	Y9	Z9	X10	Y10	Z10	X11	Y11	Z11	X12	Y12	Z12	X13	Y13	Z13	X14	Y14	Z14	X15	Y15	Z15	X16	Y16	Z16	X17	Y17	Z17	X18	Y18	Z18	X19	Y19	Z19	X20	Y20	Z20	X21	Y21	Z21	X22	Y22	Z22	X23	Y23	Z23	X24	Y24	Z24	X25	Y25	Z25	X26	Y26	Z26	X27	Y27	Z27	X28	Y28	Z28	X29	Y29	Z29	X30	Y30	Z30	X31	Y31	Z31	X32	Y32	Z32	X33	Y33	Z33	X34	Y34	Z34	X35	Y35	Z35	X36	Y36	Z36	X37	Y37	Z37	X38	Y38	Z38	X39	Y39	Z39	X40	Y40	Z40	X41	Y41	Z41	X42	Y42	Z42	X43	Y43	Z43	X44	Y44	Z44	X45	Y45	Z45	X46	Y46	Z46	X47	Y47	Z47	X48	Y48	Z48	X49	Y49	Z49	X50	Y50	Z50	
1750	8.7500	461.383374	1317.486969	-170.780084	449.212072	1328.555080	-417.312922	430.094873	1391.555071	-294.939983	382.845998	1239.882189	-291.110072	515.260646	1089.436523	-17.548241	691.471696	922.710442	-95.063563	470.467571	1079.330446	-572.636941	675.404795	926.862010	-477.840432	-136.938774	1172.505522	-268.929268	4.549992	1198.973152	-417.032083	14.301224	1190.540077	-131.961604	55.694951	1144.169528	-389.068749	57.444630	1136.002475	-163.084801	-100.296695	1221.690480	-226.489066	-102.642237	1227.597590	-313.402761	-19.771099	1059.441061	-109.009101	-54.775423	1090.669523	-443.861943	78.131117	990.671305	-96.925396	160.683503	957.261064	-98.092221	213.472540	886.494379	-102.632404	181.303620	985.270223	-111.006007	315.467595	783.480216	-128.889468	302.337982	781.559420	-238.461564	226.893310	721.964242	-101.526865	182.848616	645.874072	-113.464453	110.206837	599.817346	-115.750786	206.583113	627.329689	-138.012698	22.076614	505.375014	-121.608597	47.920006	510.636416	-203.498764	-49.669835	526.367876	-170.191164	145.490591	303.031043	-154.232285	56.252151	360.226153	-94.290005	51.316514	988.465622	-463.249338	131.891999	958.262989	-460.798278	154.253345	986.651932	-447.801335	187.577532	887.272863	-460.416192	292.041522	783.286137	-428.065564	285.760648	766.670752	-321.664126	262.106685	659.622578	-454.976604	274.195759	573.508352	-443.814719	241.137801	491.318833	-445.395989	303.647902	572.209741	-418.856089	230.001074	368.955301	-439.715995	249.604510	391.557287	-363.681599	170.258122	327.870866	-397.637531	464.414195	312.299083	-405.991037	356.211097	284.633283	-467.921526	-265.021814	895.292204	-287.370100	-53.428570	78.949423	-475.319527	-53.495000	79.155189	-77.622613	
1751	8.7550	460.889151	1317.694768	-169.395523	449.404594	1329.007908	-416.096986	429.693055	1392.155865	-293.520935	382.746545	1240.381620	-290.269589	515.049765	1089.287322	-16.955804	691.401556	922.814390	-95.002659	471.587940	1080.201139	-571.843070	675.724716	926.429911	-477.631256	-136.576706	1172.330324	-270.232528	5.741915	1198.731538	-417.811697	13.659578	1190.815183	-132.771773	56.435375	1143.807376	-389.772178	57.043972	1136.283482	-163.467978	-100.080978	1221.345220	-228.449259	-101.973932	1227.425008	-314.893234	-19.475146	1060.915302	-109.533725	-54.256287	1089.628274	-444.607354	79.320430	994.106988	-97.766407	162.686941	962.570605	-98.371980	217.110685	893.216392	-102.453599	182.837353	991.152607	-111.132194	321.182114	792.064759	-128.656732	308.155357	789.780543	-238.406700	232.249388	730.852469	-101.498132	187.730274	655.204574	-113.510128	114.720134	609.524209	-116.198356	211.407481	636.372239	-138.012000	26.030809	516.206635	-121.987932	51.445316	520.918361	-204.021195	-45.487759	537.553527	-170.439740	147.903049	312.726801	-154.409739	59.262127	371.427938	-93.851072	50.211136	985.481068	-464.156609	129.935799	953.032756	-461.560423	153.039167	980.824911	-448.552229	183.572530	880.548368	-461.198450	285.406879	774.244897	-428.835442	274.878334	756.859803	-322.226770	257.466461	649.866003	-455.086142	270.241582	564.136123	-444.226214	238.135692	481.479865	-446.125411	299.332422	563.086754	-418.624207	228.131709	359.660629	-440.222294	247.842233	382.509301	-364.295233	168.307681	319.103104	-398.023318	462.357032	301.115445	-405.936723	353.988099	274.208732	-467.925763	-265.031654	895.301702	-287.336708	-53.419827	78.943460	-475.327511	-53.501421	79.157398	-77.638037	
1752	8.7600	460.337242	1318.045379	-168.031939	449.412185	1329.504163	-414.792717	429.310880	1392.924006	-292.304509	382.330214	1241.157995	-289.462099	514.775207	1089.196264	-16.370353	691.362606	922.944425	-94.874106	472.621495	1081.015729	-571.115659	676.016633	926.020930	-477.347574	-136.270980	1172.195548	-271.625107	7.208534	1198.125228	-418.284579	13.051432	1191.125741	-133.375918	57.302100	1142.911285	-390.284286	56.782221	1136.649832	-163.759001	-100.194714	1221.349283	-229.898702	-101.288968	1227.261368	-316.542529	-19.169119	1062.562502	-109.999019	-53.713738	1088.639499	-445.334010	80.553558	997.854713	-98.589662	164.790856	968.209140	-98.463950	220.649218	900.038039	-102.227386	184.271325	997.189141	-111.290641	326.788885	800.940561	-128.605581	314.063897	798.239400	-238.316420	237.309285	739.988633	-101.564101	192.788146	664.519604	-113.699479	119.484363	619.291986	-116.544970	215.907681	645.274868	-138.326276	30.159387	526.742019	-122.715397	55.779895	531.250607	-204.285906	-41.034946	548.384975	-170.866174	151.004507	322.570051	-154.458610	62.872705	381.595279	-94.228209	49.202908	982.582811	-465.074589	127.964603	947.972573	-462.372458	151.829708	974.850254	-449.186440	179.614802	874.005422	-461.720988	278.711261	765.233382	-429.443885	267.331835	748.219128	-323.325143	251.613214	640.406186	-455.749931	265.529477	554.766868	-444.694499	234.540070	471.800312	-446.573179	294.579033	554.258559	-418.695610	225.743703	350.604555	-440.528535	245.653039	373.736735	-364.745182	165.781074	310.794772	-398.158029	459.682030	290.056677	-405.847709	351.208005	264.055502	-467.905681	-264.919782	895.324289	-287.487615	-53.421059	78.944882	-475.358762	-53.499606	79.162213	-77.680145	
1753	8.7650	459.742394	1318.473350	-166.741608	449.595585	1329.824921	-413.555762	428.919781	1393.608463	-291.043141	382.083445	1241.796929	-288.603447	514.426365	1089.169041	-15.735068	691.288010	923.074670	-94.697977	473.618392	1081.715573	-570.226939	676.297661	925.613660	-476.937675	-135.051175	1171.627196	-273.651667	8.388085	1197.944103	-419.341300	12.442303	1191.548348	-134.112167	58.094014	1142.173741	-390.778058	56.579755	1137.118539	-163.994577	-100.402347	1221.335693	-231.334091	-100.550990	1227.140303	-318.173987	-18.780112	1064.279147	-110.404834	-53.095026	1087.481153	-445.950869	81.929343	1001.690259	-98.964925	166.788938	973.996915	-98.469515	224.263162	907.156974	-102.032548	185.598527	1003.359360	-111.593864	332.169734	810.136154	-128.627808	319.595794	806.956702	-238.067972	242.924901	749.103704	-101.552371	198.038822	673.862378	-113.714516	124.508294	628.968844	-116.778724	221.156947	654.671141	-138.131971	34.772711	537.018460	-123.173221	60.506716	541.310039	-204.524248	-35.866580	559.078690	-170.781310	154.778855	332.303617	-154.628835	66.897725	391.796812	-94.367247	48.226221	979.774254	-465.903642	126.036203	943.005952	-463.089159	150.539063	969.233617	-449.735976	175.582289	867.631567	-462.327337	271.823319	756.383545	-429.956848	260.151551	739.397858	-324.180792	244.900856	631.018612	-456.430799	260.005288	545.654102	-445.171341	230.201925	462.215258	-446.961514	289.024844	545.582968	-419.179079	222.788950	342.202188	-440.653954	242.923265	365.358847	-364.943395	162.741982	302.964659	-398.231461	456.486832	279.051411	-405.690284	347.750420	254.131309	-467.792077	-265.054469	895.329876	-287.505145	-53.417851	78.936532	-475.364069	-53.515126	79.189684	-77.662689	
